<svg xmlns="http://www.w3.org/2000/svg" viewBox="0 0 1024 1024" width="1024" height="1024"><defs><linearGradient id="g" x1="0" y1="0" x2="1" y2="1"><stop offset="0" stop-color="#E25C84"/><stop offset="1" stop-color="#B8325A"/></linearGradient></defs><rect width="1024" height="1024" fill="url(#g)"/><g transform="translate(512 560) scale(1.0) translate(-512 -560)"><g transform="translate(0 -70)"><path d="M512 742 C 400 664 300 588 300 472 C 300 404 352 352 418 352 C 458 352 492 372 512 404 C 532 372 566 352 606 352 C 672 352 724 404 724 472 C 724 588 624 664 512 742 Z" fill="#FFFFFF"/></g>
<path d="M250 640 C 320 770 704 770 774 640" fill="none" stroke="#FFFFFF" stroke-width="50" stroke-linecap="round"/>
<path d="M322 744 C 410 812 614 812 702 744" fill="none" stroke="#FFFFFF" stroke-width="38" stroke-linecap="round" opacity="0.72"/></g></svg>